<svg xmlns="http://www.w3.org/2000/svg" viewBox="0 0 50 50"><defs><style>.cls-1{fill:red;}</style></defs><title>logo</title><g id="Layer_1" data-name="Layer 1"><rect class="cls-1" x="16" width="20" height="25"/><rect class="cls-1" x="16" y="25" width="20" height="25"/><polyline class="cls-1" points="0 16 25 16 25 36 0 36"/><polyline class="cls-1" points="50 36 25 36 25 16 50 16"/></g><g id="Layer_2" data-name="Layer 2"><path class="cls-1" d="M35,30.67a10,10,0,1,1-10-10A10,10,0,0,1,35,30.67Z"/><path class="cls-1" d="M16.91,24.79a52.78,52.78,0,0,0,4-5.37c3.28-5,3.83-7.49,4-9.11,0-.41,0-.76.06-1V24.62"/><path class="cls-1" d="M33.09,24.79S25,15.63,25,9.33V24.62"/></g></svg>